<?xml version="1.0" encoding="UTF-8" standalone="no"?>
<!DOCTYPE svg PUBLIC "-//W3C//DTD SVG 1.1//EN" "http://www.w3.org/Graphics/SVG/1.1/DTD/svg11.dtd">
<!-- Generated by graphviz version 2.40.1 (20161225.0304)
 -->
<!-- Title: hierarchy Pages: 1 -->
<svg width="191pt" height="188pt" viewBox="0.00 0.00 191.41 188.00" xmlns="http://www.w3.org/2000/svg" xmlns:xlink="http://www.w3.org/1999/xlink">
<g id="graph0" class="graph" transform="scale(1 1) rotate(0) translate(4 184)">
<title>hierarchy</title>
<polygon fill="#ffffff" stroke="transparent" points="-4,4 -4,-184 187.4073,-184 187.4073,4 -4,4"/>
<!-- n&#45;1 -->
<g id="node1" class="node">
<title>n-1</title>
<ellipse fill="none" stroke="#000000" cx="91.2037" cy="-162" rx="27" ry="18"/>
<text text-anchor="middle" x="91.2037" y="-157.8" font-family="Times,serif" font-size="14.00" fill="#000000">n-1</text>
</g>
<!-- Nil1 -->
<g id="node2" class="node">
<title>Nil1</title>
<ellipse fill="none" stroke="#c0c0c0" cx="28.2037" cy="-90" rx="28.4088" ry="18"/>
<text text-anchor="middle" x="28.2037" y="-85.8" font-family="Times,serif" font-size="14.00" fill="#c0c0c0">Nil1</text>
</g>
<!-- n&#45;1&#45;&gt;Nil1 -->
<g id="edge1" class="edge">
<title>n-1-&gt;Nil1</title>
<path fill="none" stroke="#c0c0c0" d="M77.5336,-146.3771C69.2282,-136.8852 58.457,-124.5753 49.0994,-113.8808"/>
<polygon fill="#c0c0c0" stroke="#c0c0c0" points="51.5024,-111.312 42.2833,-106.091 46.2343,-115.9215 51.5024,-111.312"/>
</g>
<!-- n -->
<g id="node3" class="node">
<title>n</title>
<ellipse fill="none" stroke="#000000" cx="155.2037" cy="-90" rx="27" ry="18"/>
<text text-anchor="middle" x="155.2037" y="-85.8" font-family="Times,serif" font-size="14.00" fill="#000000">n</text>
</g>
<!-- n&#45;1&#45;&gt;n -->
<g id="edge2" class="edge">
<title>n-1-&gt;n</title>
<path fill="none" stroke="#000000" d="M105.0907,-146.3771C113.729,-136.659 124.993,-123.987 134.6533,-113.1191"/>
<polygon fill="#000000" stroke="#000000" points="137.316,-115.3918 141.3437,-105.5924 132.0841,-110.7413 137.316,-115.3918"/>
</g>
<!-- Nil2 -->
<g id="node4" class="node">
<title>Nil2</title>
<ellipse fill="none" stroke="#c0c0c0" cx="155.2037" cy="-18" rx="28.4088" ry="18"/>
<text text-anchor="middle" x="155.2037" y="-13.8" font-family="Times,serif" font-size="14.00" fill="#c0c0c0">Nil2</text>
</g>
<!-- n&#45;&gt;Nil2 -->
<g id="edge3" class="edge">
<title>n-&gt;Nil2</title>
<path fill="none" stroke="#c0c0c0" d="M155.2037,-71.8314C155.2037,-64.131 155.2037,-54.9743 155.2037,-46.4166"/>
<polygon fill="#c0c0c0" stroke="#c0c0c0" points="158.7038,-46.4132 155.2037,-36.4133 151.7038,-46.4133 158.7038,-46.4132"/>
</g>
</g>
</svg>