<?xml version="1.0" encoding="UTF-8" standalone="no"?>
<!DOCTYPE svg PUBLIC "-//W3C//DTD SVG 1.1//EN" "http://www.w3.org/Graphics/SVG/1.1/DTD/svg11.dtd">
<!-- Generated by graphviz version 2.40.1 (20161225.0304)
 -->
<!-- Title: hierarchy Pages: 1 -->
<svg width="317pt" height="332pt" viewBox="0.00 0.00 317.41 332.00" xmlns="http://www.w3.org/2000/svg" xmlns:xlink="http://www.w3.org/1999/xlink">
<g id="graph0" class="graph" transform="scale(1 1) rotate(0) translate(4 328)">
<title>hierarchy</title>
<polygon fill="#ffffff" stroke="transparent" points="-4,4 -4,-328 313.4073,-328 313.4073,4 -4,4"/>
<!-- 1 -->
<g id="node1" class="node">
<title>1</title>
<ellipse fill="none" stroke="#000000" cx="91.2037" cy="-306" rx="27" ry="18"/>
<text text-anchor="middle" x="91.2037" y="-301.8" font-family="Times,serif" font-size="14.00" fill="#000000">1</text>
</g>
<!-- Nil4 -->
<g id="node2" class="node">
<title>Nil4</title>
<ellipse fill="none" stroke="#c0c0c0" cx="28.2037" cy="-234" rx="28.4088" ry="18"/>
<text text-anchor="middle" x="28.2037" y="-229.8" font-family="Times,serif" font-size="14.00" fill="#c0c0c0">Nil4</text>
</g>
<!-- 1&#45;&gt;Nil4 -->
<g id="edge1" class="edge">
<title>1-&gt;Nil4</title>
<path fill="none" stroke="#c0c0c0" d="M77.5336,-290.3771C69.2282,-280.8852 58.457,-268.5753 49.0994,-257.8808"/>
<polygon fill="#c0c0c0" stroke="#c0c0c0" points="51.5024,-255.312 42.2833,-250.091 46.2343,-259.9215 51.5024,-255.312"/>
</g>
<!-- 2 -->
<g id="node3" class="node">
<title>2</title>
<ellipse fill="none" stroke="#000000" cx="155.2037" cy="-234" rx="27" ry="18"/>
<text text-anchor="middle" x="155.2037" y="-229.8" font-family="Times,serif" font-size="14.00" fill="#000000">2</text>
</g>
<!-- 1&#45;&gt;2 -->
<g id="edge2" class="edge">
<title>1-&gt;2</title>
<path fill="none" stroke="#000000" d="M105.0907,-290.3771C113.729,-280.659 124.993,-267.987 134.6533,-257.1191"/>
<polygon fill="#000000" stroke="#000000" points="137.316,-259.3918 141.3437,-249.5924 132.0841,-254.7413 137.316,-259.3918"/>
</g>
<!-- Nil3 -->
<g id="node4" class="node">
<title>Nil3</title>
<ellipse fill="none" stroke="#c0c0c0" cx="91.2037" cy="-162" rx="28.4088" ry="18"/>
<text text-anchor="middle" x="91.2037" y="-157.8" font-family="Times,serif" font-size="14.00" fill="#c0c0c0">Nil3</text>
</g>
<!-- 2&#45;&gt;Nil3 -->
<g id="edge3" class="edge">
<title>2-&gt;Nil3</title>
<path fill="none" stroke="#c0c0c0" d="M141.3166,-218.3771C132.7967,-208.7921 121.7225,-196.3337 112.1519,-185.5667"/>
<polygon fill="#c0c0c0" stroke="#c0c0c0" points="114.7664,-183.2398 105.5068,-178.091 109.5345,-187.8904 114.7664,-183.2398"/>
</g>
<!-- n&#45;1 -->
<g id="node5" class="node">
<title>n-1</title>
<ellipse fill="none" stroke="#000000" cx="218.2037" cy="-162" rx="27" ry="18"/>
<text text-anchor="middle" x="218.2037" y="-157.8" font-family="Times,serif" font-size="14.00" fill="#000000">n-1</text>
</g>
<!-- 2&#45;&gt;n&#45;1 -->
<g id="edge4" class="edge">
<title>2-&gt;n-1</title>
<path fill="none" stroke="#000000" stroke-dasharray="5,2" d="M168.8737,-218.3771C177.377,-208.659 188.465,-195.987 197.9744,-185.1191"/>
<polygon fill="#000000" stroke="#000000" points="200.6092,-187.423 204.5603,-177.5924 195.3412,-182.8135 200.6092,-187.423"/>
</g>
<!-- Nil1 -->
<g id="node6" class="node">
<title>Nil1</title>
<ellipse fill="none" stroke="#c0c0c0" cx="154.2037" cy="-90" rx="28.4088" ry="18"/>
<text text-anchor="middle" x="154.2037" y="-85.8" font-family="Times,serif" font-size="14.00" fill="#c0c0c0">Nil1</text>
</g>
<!-- n&#45;1&#45;&gt;Nil1 -->
<g id="edge5" class="edge">
<title>n-1-&gt;Nil1</title>
<path fill="none" stroke="#c0c0c0" d="M204.3166,-146.3771C195.7967,-136.7921 184.7225,-124.3337 175.1519,-113.5667"/>
<polygon fill="#c0c0c0" stroke="#c0c0c0" points="177.7664,-111.2398 168.5068,-106.091 172.5345,-115.8904 177.7664,-111.2398"/>
</g>
<!-- n -->
<g id="node7" class="node">
<title>n</title>
<ellipse fill="none" stroke="#000000" cx="281.2037" cy="-90" rx="27" ry="18"/>
<text text-anchor="middle" x="281.2037" y="-85.8" font-family="Times,serif" font-size="14.00" fill="#000000">n</text>
</g>
<!-- n&#45;1&#45;&gt;n -->
<g id="edge6" class="edge">
<title>n-1-&gt;n</title>
<path fill="none" stroke="#000000" d="M231.8737,-146.3771C240.377,-136.659 251.465,-123.987 260.9744,-113.1191"/>
<polygon fill="#000000" stroke="#000000" points="263.6092,-115.423 267.5603,-105.5924 258.3412,-110.8135 263.6092,-115.423"/>
</g>
<!-- Nil2 -->
<g id="node8" class="node">
<title>Nil2</title>
<ellipse fill="none" stroke="#c0c0c0" cx="281.2037" cy="-18" rx="28.4088" ry="18"/>
<text text-anchor="middle" x="281.2037" y="-13.8" font-family="Times,serif" font-size="14.00" fill="#c0c0c0">Nil2</text>
</g>
<!-- n&#45;&gt;Nil2 -->
<g id="edge7" class="edge">
<title>n-&gt;Nil2</title>
<path fill="none" stroke="#c0c0c0" d="M281.2037,-71.8314C281.2037,-64.131 281.2037,-54.9743 281.2037,-46.4166"/>
<polygon fill="#c0c0c0" stroke="#c0c0c0" points="284.7038,-46.4132 281.2037,-36.4133 277.7038,-46.4133 284.7038,-46.4132"/>
</g>
</g>
</svg>