<?xml version="1.0" encoding="UTF-8" standalone="no"?>
<!DOCTYPE svg PUBLIC "-//W3C//DTD SVG 1.1//EN" "http://www.w3.org/Graphics/SVG/1.1/DTD/svg11.dtd">
<!-- Generated by graphviz version 2.40.1 (20161225.0304)
 -->
<!-- Title: hierarchy Pages: 1 -->
<svg width="190pt" height="116pt" viewBox="0.00 0.00 190.20 116.00" xmlns="http://www.w3.org/2000/svg" xmlns:xlink="http://www.w3.org/1999/xlink">
<g id="graph0" class="graph" transform="scale(1 1) rotate(0) translate(4 112)">
<title>hierarchy</title>
<polygon fill="#ffffff" stroke="transparent" points="-4,4 -4,-112 186.2037,-112 186.2037,4 -4,4"/>
<!-- n -->
<g id="node1" class="node">
<title>n</title>
<ellipse fill="none" stroke="#000000" cx="90" cy="-90" rx="27" ry="18"/>
<text text-anchor="middle" x="90" y="-85.8" font-family="Times,serif" font-size="14.00" fill="#000000">n</text>
</g>
<!-- rest -->
<g id="node2" class="node">
<title>rest</title>
<ellipse fill="none" stroke="#000000" cx="27" cy="-18" rx="27" ry="18"/>
<text text-anchor="middle" x="27" y="-13.8" font-family="Times,serif" font-size="14.00" fill="#000000">rest</text>
</g>
<!-- n&#45;&gt;rest -->
<g id="edge1" class="edge">
<title>n-&gt;rest</title>
<path fill="none" stroke="#000000" d="M76.3299,-74.3771C67.8266,-64.659 56.7387,-51.987 47.2292,-41.1191"/>
<polygon fill="#000000" stroke="#000000" points="49.8625,-38.8135 40.6434,-33.5924 44.5944,-43.423 49.8625,-38.8135"/>
</g>
<!-- Nil1 -->
<g id="node3" class="node">
<title>Nil1</title>
<ellipse fill="none" stroke="#c0c0c0" cx="154" cy="-18" rx="28.4088" ry="18"/>
<text text-anchor="middle" x="154" y="-13.8" font-family="Times,serif" font-size="14.00" fill="#c0c0c0">Nil1</text>
</g>
<!-- n&#45;&gt;Nil1 -->
<g id="edge2" class="edge">
<title>n-&gt;Nil1</title>
<path fill="none" stroke="#c0c0c0" d="M103.887,-74.3771C112.407,-64.7921 123.4812,-52.3337 133.0518,-41.5667"/>
<polygon fill="#c0c0c0" stroke="#c0c0c0" points="135.6692,-43.8904 139.6969,-34.091 130.4373,-39.2398 135.6692,-43.8904"/>
</g>
</g>
</svg>