<?xml version="1.0" encoding="UTF-8" standalone="no"?>
<!DOCTYPE svg PUBLIC "-//W3C//DTD SVG 1.1//EN" "http://www.w3.org/Graphics/SVG/1.1/DTD/svg11.dtd">
<!-- Generated by graphviz version 2.40.1 (20161225.0304)
 -->
<!-- Title: hierarchy Pages: 1 -->
<svg width="188pt" height="116pt" viewBox="0.00 0.00 188.00 116.00" xmlns="http://www.w3.org/2000/svg" xmlns:xlink="http://www.w3.org/1999/xlink">
<g id="graph0" class="graph" transform="scale(1 1) rotate(0) translate(4 112)">
<title>hierarchy</title>
<polygon fill="#ffffff" stroke="transparent" points="-4,4 -4,-112 184,-112 184,4 -4,4"/>
<!-- n&#45;1 -->
<g id="node1" class="node">
<title>n-1</title>
<ellipse fill="none" stroke="#000000" cx="90" cy="-90" rx="27" ry="18"/>
<text text-anchor="middle" x="90" y="-85.8" font-family="Times,serif" font-size="14.00" fill="#000000">n-1</text>
</g>
<!-- rest -->
<g id="node2" class="node">
<title>rest</title>
<ellipse fill="none" stroke="#000000" cx="27" cy="-18" rx="27" ry="18"/>
<text text-anchor="middle" x="27" y="-13.8" font-family="Times,serif" font-size="14.00" fill="#000000">rest</text>
</g>
<!-- n&#45;1&#45;&gt;rest -->
<g id="edge1" class="edge">
<title>n-1-&gt;rest</title>
<path fill="none" stroke="#000000" d="M76.3299,-74.3771C67.8266,-64.659 56.7387,-51.987 47.2292,-41.1191"/>
<polygon fill="#000000" stroke="#000000" points="49.8625,-38.8135 40.6434,-33.5924 44.5944,-43.423 49.8625,-38.8135"/>
</g>
<!-- n -->
<g id="node3" class="node">
<title>n</title>
<ellipse fill="none" stroke="#000000" cx="153" cy="-18" rx="27" ry="18"/>
<text text-anchor="middle" x="153" y="-13.8" font-family="Times,serif" font-size="14.00" fill="#000000">n</text>
</g>
<!-- n&#45;1&#45;&gt;n -->
<g id="edge2" class="edge">
<title>n-1-&gt;n</title>
<path fill="none" stroke="#000000" d="M103.6701,-74.3771C112.1734,-64.659 123.2613,-51.987 132.7708,-41.1191"/>
<polygon fill="#000000" stroke="#000000" points="135.4056,-43.423 139.3566,-33.5924 130.1375,-38.8135 135.4056,-43.423"/>
</g>
</g>
</svg>