<?xml version="1.0" encoding="UTF-8" standalone="no"?>
<!DOCTYPE svg PUBLIC "-//W3C//DTD SVG 1.1//EN" "http://www.w3.org/Graphics/SVG/1.1/DTD/svg11.dtd">
<!-- Generated by graphviz version 2.40.1 (20161225.0304)
 -->
<!-- Title: hierarchy Pages: 1 -->
<svg width="327pt" height="260pt" viewBox="0.00 0.00 327.20 260.00" xmlns="http://www.w3.org/2000/svg" xmlns:xlink="http://www.w3.org/1999/xlink">
<g id="graph0" class="graph" transform="scale(1 1) rotate(0) translate(4 256)">
<title>hierarchy</title>
<polygon fill="#ffffff" stroke="transparent" points="-4,4 -4,-256 323.2037,-256 323.2037,4 -4,4"/>
<!-- 0, n -->
<g id="node1" class="node">
<title>0, n</title>
<ellipse fill="none" stroke="#000000" cx="95.2037" cy="-234" rx="27" ry="18"/>
<text text-anchor="middle" x="95.2037" y="-229.8" font-family="Times,serif" font-size="14.00" fill="#000000">0, n</text>
</g>
<!-- Nil1 -->
<g id="node2" class="node">
<title>Nil1</title>
<ellipse fill="none" stroke="#c0c0c0" cx="28.2037" cy="-162" rx="28.4088" ry="18"/>
<text text-anchor="middle" x="28.2037" y="-157.8" font-family="Times,serif" font-size="14.00" fill="#c0c0c0">Nil1</text>
</g>
<!-- 0, n&#45;&gt;Nil1 -->
<g id="edge1" class="edge">
<title>0, n-&gt;Nil1</title>
<path fill="none" stroke="#c0c0c0" d="M80.6657,-218.3771C71.6225,-208.659 59.8305,-195.987 49.7173,-185.1191"/>
<polygon fill="#c0c0c0" stroke="#c0c0c0" points="52.0879,-182.5288 42.7133,-177.5924 46.9634,-187.2975 52.0879,-182.5288"/>
</g>
<!-- 1, n&#45;1 -->
<g id="node3" class="node">
<title>1, n-1</title>
<ellipse fill="none" stroke="#000000" cx="162.2037" cy="-162" rx="33.6305" ry="18"/>
<text text-anchor="middle" x="162.2037" y="-157.8" font-family="Times,serif" font-size="14.00" fill="#000000">1, n-1</text>
</g>
<!-- 0, n&#45;&gt;1, n&#45;1 -->
<g id="edge2" class="edge">
<title>0, n-&gt;1, n-1</title>
<path fill="none" stroke="#000000" d="M109.7417,-218.3771C118.599,-208.8587 130.0934,-196.5066 140.0645,-185.7913"/>
<polygon fill="#000000" stroke="#000000" points="142.7463,-188.0472 146.9964,-178.3421 137.6218,-183.2785 142.7463,-188.0472"/>
</g>
<!-- Nil2 -->
<g id="node4" class="node">
<title>Nil2</title>
<ellipse fill="none" stroke="#c0c0c0" cx="95.2037" cy="-90" rx="28.4088" ry="18"/>
<text text-anchor="middle" x="95.2037" y="-85.8" font-family="Times,serif" font-size="14.00" fill="#c0c0c0">Nil2</text>
</g>
<!-- 1, n&#45;1&#45;&gt;Nil2 -->
<g id="edge3" class="edge">
<title>1, n-1-&gt;Nil2</title>
<path fill="none" stroke="#c0c0c0" d="M147.0003,-145.6621C138.0527,-136.0467 126.593,-123.7318 116.7286,-113.1312"/>
<polygon fill="#c0c0c0" stroke="#c0c0c0" points="119.261,-110.7148 109.8864,-105.7784 114.1365,-115.4835 119.261,-110.7148"/>
</g>
<!-- n&#45;1, 1 -->
<g id="node5" class="node">
<title>n-1, 1</title>
<ellipse fill="none" stroke="#000000" cx="229.2037" cy="-90" rx="33.6305" ry="18"/>
<text text-anchor="middle" x="229.2037" y="-85.8" font-family="Times,serif" font-size="14.00" fill="#000000">n-1, 1</text>
</g>
<!-- 1, n&#45;1&#45;&gt;n&#45;1, 1 -->
<g id="edge4" class="edge">
<title>1, n-1-&gt;n-1, 1</title>
<path fill="none" stroke="#000000" stroke-dasharray="5,2" d="M177.407,-145.6621C186.1447,-136.2723 197.2779,-124.3082 206.9818,-113.8802"/>
<polygon fill="#000000" stroke="#000000" points="209.8104,-115.9783 214.0605,-106.2733 204.6859,-111.2097 209.8104,-115.9783"/>
</g>
<!-- Nil3 -->
<g id="node6" class="node">
<title>Nil3</title>
<ellipse fill="none" stroke="#c0c0c0" cx="165.2037" cy="-18" rx="28.4088" ry="18"/>
<text text-anchor="middle" x="165.2037" y="-13.8" font-family="Times,serif" font-size="14.00" fill="#c0c0c0">Nil3</text>
</g>
<!-- n&#45;1, 1&#45;&gt;Nil3 -->
<g id="edge5" class="edge">
<title>n-1, 1-&gt;Nil3</title>
<path fill="none" stroke="#c0c0c0" d="M214.6811,-73.6621C206.2171,-64.1401 195.3998,-51.9707 186.0396,-41.4405"/>
<polygon fill="#c0c0c0" stroke="#c0c0c0" points="188.4886,-38.9273 179.2289,-33.7784 183.2567,-43.5779 188.4886,-38.9273"/>
</g>
<!-- n, 0 -->
<g id="node7" class="node">
<title>n, 0</title>
<ellipse fill="none" stroke="#000000" cx="292.2037" cy="-18" rx="27" ry="18"/>
<text text-anchor="middle" x="292.2037" y="-13.8" font-family="Times,serif" font-size="14.00" fill="#000000">n, 0</text>
</g>
<!-- n&#45;1, 1&#45;&gt;n, 0 -->
<g id="edge6" class="edge">
<title>n-1, 1-&gt;n, 0</title>
<path fill="none" stroke="#000000" d="M243.4993,-73.6621C251.8311,-64.1401 262.4793,-51.9707 271.6932,-41.4405"/>
<polygon fill="#000000" stroke="#000000" points="274.4465,-43.609 278.3975,-33.7784 269.1784,-38.9995 274.4465,-43.609"/>
</g>
</g>
</svg>